{
    "asset" : {
        "generator" : "Khronos glTF Blender I/O v1.8.19",
        "version" : "2.0"
    },
    "scene" : 0,
    "scenes" : [
        {
            "name" : "Scene",
            "nodes" : [
                25
            ]
        }
    ],
    "nodes" : [
        {
            "name" : "Bone.023",
            "rotation" : [
                -0.2391987144947052,
                -0.005120363086462021,
                -0.08503939211368561,
                0.9672260284423828
            ],
            "scale" : [
                0.9999997019767761,
                1,
                0.9999997615814209
            ],
            "translation" : [
                -1.6293564897296164e-07,
                0.40214803814888,
                -2.455365404330223e-07
            ]
        },
        {
            "children" : [
                0
            ],
            "name" : "Bone.004",
            "rotation" : [
                0.00879825372248888,
                -0.027181612327694893,
                0.04656686633825302,
                0.9985065460205078
            ],
            "scale" : [
                0.9999998807907104,
                1.0000001192092896,
                1.000000238418579
            ],
            "translation" : [
                3.1955359247604065e-08,
                0.5581862926483154,
                8.40776266386456e-08
            ]
        },
        {
            "children" : [
                1
            ],
            "name" : "thumb",
            "rotation" : [
                0.2191334366798401,
                0.0010801848256960511,
                0.31946974992752075,
                0.9219102263450623
            ],
            "scale" : [
                0.9999999403953552,
                1,
                0.9999998807907104
            ],
            "translation" : [
                -1.1564175395051279e-07,
                1.487096905708313,
                7.721794048620723e-08
            ]
        },
        {
            "children" : [
                2
            ],
            "name" : "Bone.002",
            "rotation" : [
                -0.05437525734305382,
                0.10170449316501617,
                -0.5646190047264099,
                0.8172544836997986
            ],
            "scale" : [
                1.0000001192092896,
                1.0000001192092896,
                1
            ],
            "translation" : [
                3.2467902144617256e-08,
                1.7110408544540405,
                -1.1603821548078486e-07
            ]
        },
        {
            "name" : "Bone.008",
            "rotation" : [
                1.4578277252041971e-08,
                -5.9139047436929104e-08,
                1.5308662781876592e-08,
                1
            ],
            "scale" : [
                0.9999977350234985,
                1,
                1.0000022649765015
            ],
            "translation" : [
                2.4900131734284514e-07,
                0.541283369064331,
                -1.5904912231690105e-07
            ]
        },
        {
            "children" : [
                4
            ],
            "name" : "Bone.007",
            "rotation" : [
                0.04281213879585266,
                -0.05557610094547272,
                0.005774818826466799,
                0.9975195527076721
            ],
            "scale" : [
                0.9999985098838806,
                0.9999874234199524,
                0.9999865889549255
            ],
            "translation" : [
                -9.395935762768204e-08,
                0.673791229724884,
                3.068613807499787e-08
            ]
        },
        {
            "children" : [
                5
            ],
            "name" : "index",
            "rotation" : [
                0.14721722900867462,
                -0.11087838560342789,
                0.0692054033279419,
                0.9804303646087646
            ],
            "scale" : [
                1,
                1.0000001192092896,
                1
            ],
            "translation" : [
                8.993357880626718e-08,
                1.893477439880371,
                -1.1558586976434526e-07
            ]
        },
        {
            "name" : "Bone.010",
            "rotation" : [
                -0.47759369015693665,
                -0.017618972808122635,
                0.3559791147708893,
                0.8030396699905396
            ],
            "scale" : [
                0.9999999403953552,
                0.9999999403953552,
                0.9999999403953552
            ],
            "translation" : [
                6.05359673500061e-08,
                1.893477439880371,
                -1.1920928955078125e-07
            ]
        },
        {
            "children" : [
                6,
                7
            ],
            "name" : "Bone.005",
            "rotation" : [
                -0.0824403166770935,
                0.09789121896028519,
                -0.20443765819072723,
                0.9704773426055908
            ],
            "scale" : [
                0.9999999403953552,
                1.0000001192092896,
                1
            ],
            "translation" : [
                8.634463455337027e-08,
                1.7110408544540405,
                -4.6579429202608935e-09
            ]
        },
        {
            "name" : "Bone.009",
            "rotation" : [
                0.6614956259727478,
                -0.0005937315872870386,
                -0.5153629183769226,
                0.5448156595230103
            ],
            "scale" : [
                1,
                1,
                1.0000001192092896
            ],
            "translation" : [
                -2.1215761591975024e-08,
                1.71104097366333,
                -6.569686661350715e-08
            ]
        },
        {
            "name" : "Bone.014",
            "rotation" : [
                0.14475186169147491,
                -0.04073440656065941,
                0.00633647758513689,
                0.9886088967323303
            ],
            "scale" : [
                0.9999997615814209,
                0.9999997019767761,
                0.9999997019767761
            ],
            "translation" : [
                -6.274012420703912e-09,
                0.4535924196243286,
                2.1235707947653282e-07
            ]
        },
        {
            "children" : [
                10
            ],
            "name" : "Bone.013",
            "rotation" : [
                0.060026369988918304,
                -0.001669786754064262,
                -0.005890059284865856,
                0.9981780052185059
            ],
            "scale" : [
                0.9999998211860657,
                1,
                0.9999998807907104
            ],
            "translation" : [
                -1.292478124526042e-08,
                0.825999915599823,
                8.637087489660189e-08
            ]
        },
        {
            "children" : [
                11
            ],
            "name" : "middle",
            "rotation" : [
                0.1310381293296814,
                -0.02890769951045513,
                -0.021180013194680214,
                0.9907294511795044
            ],
            "scale" : [
                0.9999999403953552,
                0.9999998807907104,
                0.9999998211860657
            ],
            "translation" : [
                2.2276715583302575e-08,
                1.759857177734375,
                1.1440263847362075e-07
            ]
        },
        {
            "children" : [
                12
            ],
            "name" : "Bone.011",
            "rotation" : [
                -0.002273356541991234,
                0.037213291972875595,
                -0.0697108581662178,
                0.9968702793121338
            ],
            "scale" : [
                0.9999999403953552,
                0.9999998807907104,
                0.9999999403953552
            ],
            "translation" : [
                9.975964587738417e-08,
                1.711040735244751,
                1.1649876796582248e-07
            ]
        },
        {
            "name" : "Bone.022",
            "rotation" : [
                0.11345025897026062,
                0.02956073358654976,
                -0.04510965943336487,
                0.9920788407325745
            ],
            "scale" : [
                0.9999997615814209,
                0.9999997615814209,
                0.9999995827674866
            ],
            "translation" : [
                2.5161362771086715e-08,
                0.46000441908836365,
                -1.666003157652085e-07
            ]
        },
        {
            "children" : [
                14
            ],
            "name" : "Bone.017",
            "rotation" : [
                0.14734140038490295,
                0.01977180503308773,
                -0.0735372006893158,
                0.9861500263214111
            ],
            "scale" : [
                0.9999997019767761,
                0.9999995827674866,
                0.9999995827674866
            ],
            "translation" : [
                1.1631632901298872e-07,
                0.8398023843765259,
                1.1524665666229339e-07
            ]
        },
        {
            "children" : [
                15
            ],
            "name" : "ring",
            "rotation" : [
                -0.03534771502017975,
                -0.0027011074125766754,
                -0.021149061620235443,
                0.9991476535797119
            ],
            "scale" : [
                0.9999999403953552,
                0.9999999403953552,
                0.9999999403953552
            ],
            "translation" : [
                9.515195387166386e-08,
                1.6801433563232422,
                8.442908239203462e-08
            ]
        },
        {
            "children" : [
                16
            ],
            "name" : "Bone.015",
            "rotation" : [
                0.07498065382242203,
                -0.0206858292222023,
                0.04639430344104767,
                0.9958903789520264
            ],
            "scale" : [
                0.9999998807907104,
                0.9999998807907104,
                1.0000001192092896
            ],
            "translation" : [
                8.92531630825033e-08,
                1.7110408544540405,
                1.4352488086899484e-09
            ]
        },
        {
            "name" : "Bone.021",
            "rotation" : [
                0.1366000473499298,
                -0.011685646139085293,
                -0.13490939140319824,
                0.9813273549079895
            ],
            "translation" : [
                -4.405788445183134e-08,
                0.45231950283050537,
                2.518076485102938e-07
            ]
        },
        {
            "children" : [
                18
            ],
            "name" : "Bone.020",
            "rotation" : [
                0.03264840692281723,
                0.005992872640490532,
                -0.036332808434963226,
                0.9987882971763611
            ],
            "scale" : [
                0.9999998807907104,
                1,
                1
            ],
            "translation" : [
                -1.254860677590841e-07,
                0.417903333902359,
                -3.876445120454264e-08
            ]
        },
        {
            "children" : [
                19
            ],
            "name" : "little",
            "rotation" : [
                0.02142951823771,
                0.0022465346846729517,
                -0.09167679399251938,
                0.9955556988716125
            ],
            "scale" : [
                1,
                1,
                0.9999999403953552
            ],
            "translation" : [
                -6.332993507385254e-08,
                1.6712766885757446,
                -6.332993507385254e-08
            ]
        },
        {
            "children" : [
                20
            ],
            "name" : "Bone.018",
            "rotation" : [
                0.1692858189344406,
                -0.08707986027002335,
                0.17302007973194122,
                0.9663454294204712
            ],
            "translation" : [
                5.1181547888745627e-08,
                1.711040735244751,
                2.139754968766283e-07
            ]
        },
        {
            "children" : [
                3,
                8,
                9,
                13,
                17,
                21
            ],
            "name" : "Wrist",
            "rotation" : [
                0.012525242753326893,
                -0.16610026359558105,
                0.04624038562178612,
                0.9849445223808289
            ],
            "scale" : [
                0.9999997615814209,
                0.9999998807907104,
                0.9999998211860657
            ],
            "translation" : [
                6.228833626664709e-08,
                1.2325469255447388,
                -5.456582030660684e-08
            ]
        },
        {
            "children" : [
                22
            ],
            "name" : "Bone",
            "rotation" : [
                0.9803178906440735,
                -0.005376224406063557,
                -0.03942592442035675,
                0.19337400794029236
            ],
            "scale" : [
                1,
                0.9999998807907104,
                0.9999999403953552
            ],
            "translation" : [
                0.5379670858383179,
                2.2470510005950928,
                0.08046572655439377
            ]
        },
        {
            "mesh" : 0,
            "name" : "Plane005",
            "skin" : 0
        },
        {
            "children" : [
                24,
                23
            ],
            "name" : "Armature",
            "scale" : [
                0.18929940462112427,
                0.18929940462112427,
                0.18929940462112427
            ],
            "translation" : [
                0.183511883020401,
                0.6208851337432861,
                -0.31606319546699524
            ]
        }
    ],
    "materials" : [
        {
            "doubleSided" : true,
            "name" : "Material #46",
            "pbrMetallicRoughness" : {
                "baseColorFactor" : [
                    0.5879999995231628,
                    0.5879999995231628,
                    0.5879999995231628,
                    1
                ],
                "roughnessFactor" : 0.858578622341156
            }
        }
    ],
    "meshes" : [
        {
            "name" : "Mesh",
            "primitives" : [
                {
                    "attributes" : {
                        "POSITION" : 0,
                        "NORMAL" : 1,
                        "TEXCOORD_0" : 2,
                        "JOINTS_0" : 3,
                        "WEIGHTS_0" : 4
                    },
                    "indices" : 5,
                    "material" : 0
                }
            ]
        }
    ],
    "skins" : [
        {
            "inverseBindMatrices" : 6,
            "joints" : [
                23,
                22,
                3,
                2,
                1,
                0,
                8,
                6,
                5,
                4,
                7,
                9,
                13,
                12,
                11,
                10,
                17,
                16,
                15,
                14,
                21,
                20,
                19,
                18
            ],
            "name" : "Armature"
        }
    ],
    "accessors" : [
        {
            "bufferView" : 0,
            "componentType" : 5126,
            "count" : 1572,
            "max" : [
                0.3318016231060028,
                0.9019184112548828,
                0.23021145164966583
            ],
            "min" : [
                -0.10636142641305923,
                -0.12811100482940674,
                -0.3958040475845337
            ],
            "type" : "VEC3"
        },
        {
            "bufferView" : 1,
            "componentType" : 5126,
            "count" : 1572,
            "type" : "VEC3"
        },
        {
            "bufferView" : 2,
            "componentType" : 5126,
            "count" : 1572,
            "type" : "VEC2"
        },
        {
            "bufferView" : 3,
            "componentType" : 5121,
            "count" : 1572,
            "type" : "VEC4"
        },
        {
            "bufferView" : 4,
            "componentType" : 5126,
            "count" : 1572,
            "type" : "VEC4"
        },
        {
            "bufferView" : 5,
            "componentType" : 5123,
            "count" : 2358,
            "type" : "SCALAR"
        },
        {
            "bufferView" : 6,
            "componentType" : 5126,
            "count" : 24,
            "type" : "MAT4"
        }
    ],
    "bufferViews" : [
        {
            "buffer" : 0,
            "byteLength" : 18864,
            "byteOffset" : 0
        },
        {
            "buffer" : 0,
            "byteLength" : 18864,
            "byteOffset" : 18864
        },
        {
            "buffer" : 0,
            "byteLength" : 12576,
            "byteOffset" : 37728
        },
        {
            "buffer" : 0,
            "byteLength" : 6288,
            "byteOffset" : 50304
        },
        {
            "buffer" : 0,
            "byteLength" : 25152,
            "byteOffset" : 56592
        },
        {
            "buffer" : 0,
            "byteLength" : 4716,
            "byteOffset" : 81744
        },
        {
            "buffer" : 0,
            "byteLength" : 1536,
            "byteOffset" : 86460
        }
    ],
    "buffers" : [
        {
            "byteLength" : 87996,
            "uri" : "data:application/octet-stream;base64,"
        }
    ]
}
